<?xml version="1.0" encoding="UTF-8"?>
<!DOCTYPE svg PUBLIC "-//W3C//DTD SVG 1.1//EN" "http://www.w3.org/Graphics/SVG/1.1/DTD/svg11.dtd">
<svg version="1.1" xmlns="http://www.w3.org/2000/svg" xmlns:xlink="http://www.w3.org/1999/xlink" x="0" y="0" width="700" height="440" viewBox="0, 0, 700, 440">
  <g id="Layer_1">
    <g>
      <path d="M534.758,214.241 L432.479,162.628 L432.479,265.38 L534.758,214.241 z" fill-opacity="0" stroke="#000000" stroke-width="3"/>
      <path d="M432.479,199.674 L396.143,199.674" fill-opacity="0" stroke="#000000" stroke-width="3"/>
      <path d="M534.758,214.241 L647.016,214.241" fill-opacity="0" stroke="#000000" stroke-width="3"/>
      <g>
        <path d="M432.479,245.453 L274.607,245.453" fill-opacity="0" stroke="#000000" stroke-width="3"/>
        <path d="M274.607,241.253 L263.407,245.453 L274.607,249.653 z" fill="#000000" fill-opacity="1" stroke="#000000" stroke-width="3" stroke-opacity="1"/>
      </g>
      <path d="M139.994,417.453 L647.016,417.453" fill-opacity="0" stroke="#000000" stroke-width="3"/>
      <path d="M396.143,201.674 L396.143,72.674" fill-opacity="0" stroke="#000000" stroke-width="3"/>
      <path d="M249.879,417.453 L249.879,72.674" fill-opacity="0" stroke="#000000" stroke-width="3"/>
      <path d="M139.005,70.674 L576.016,70.674" fill-opacity="0" stroke="#000000" stroke-width="3"/>
      <path d="M576.015,70.674 L576.015,214.241" fill-opacity="0" stroke="#000000" stroke-width="2"/>
      <path d="M249.379,422.953 C246.066,422.953 243.379,420.267 243.379,416.953 C243.379,413.639 246.066,410.953 249.379,410.953 C252.693,410.953 255.379,413.639 255.379,416.953 C255.379,420.267 252.693,422.953 249.379,422.953 z" fill="#000000"/>
      <path d="M575.924,219.504 C572.61,219.504 569.924,216.818 569.924,213.504 C569.924,210.19 572.61,207.504 575.924,207.504 C579.238,207.504 581.924,210.19 581.924,213.504 C581.924,216.818 579.238,219.504 575.924,219.504 z" fill="#000000"/>
      <path d="M395.643,76.174 C392.329,76.174 389.643,73.488 389.643,70.174 C389.643,66.861 392.329,64.174 395.643,64.174 C398.957,64.174 401.643,66.861 401.643,70.174 C401.643,73.488 398.957,76.174 395.643,76.174 z" fill="#000000"/>
      <path d="M249.379,76.174 C246.066,76.174 243.379,73.488 243.379,70.174 C243.379,66.861 246.066,64.174 249.379,64.174 C252.693,64.174 255.379,66.861 255.379,70.174 C255.379,73.488 252.693,76.174 249.379,76.174 z" fill="#000000"/>
      <g>
        <path d="M652.516,219.741 C649.478,219.741 647.016,217.279 647.016,214.241 C647.016,211.203 649.478,208.741 652.516,208.741 C655.553,208.741 658.016,211.203 658.016,214.241 C658.016,217.279 655.553,219.741 652.516,219.741 z" fill="#FFFFFF"/>
        <path d="M652.516,219.741 C649.478,219.741 647.016,217.279 647.016,214.241 C647.016,211.203 649.478,208.741 652.516,208.741 C655.553,208.741 658.016,211.203 658.016,214.241 C658.016,217.279 655.553,219.741 652.516,219.741 z" fill-opacity="0" stroke="#000000" stroke-width="3"/>
      </g>
      <g>
        <path d="M652.516,422.953 C649.478,422.953 647.016,420.491 647.016,417.453 C647.016,414.416 649.478,411.953 652.516,411.953 C655.553,411.953 658.016,414.416 658.016,417.453 C658.016,420.491 655.553,422.953 652.516,422.953 z" fill="#FFFFFF"/>
        <path d="M652.516,422.953 C649.478,422.953 647.016,420.491 647.016,417.453 C647.016,414.416 649.478,411.953 652.516,411.953 C655.553,411.953 658.016,414.416 658.016,417.453 C658.016,420.491 655.553,422.953 652.516,422.953 z" fill-opacity="0" stroke="#000000" stroke-width="3"/>
      </g>
      <g>
        <path d="M133.505,76.174 C130.467,76.174 128.005,73.712 128.005,70.674 C128.005,67.637 130.467,65.174 133.505,65.174 C136.543,65.174 139.005,67.637 139.005,70.674 C139.005,73.712 136.543,76.174 133.505,76.174 z" fill="#FFFFFF"/>
        <path d="M133.505,76.174 C130.467,76.174 128.005,73.712 128.005,70.674 C128.005,67.637 130.467,65.174 133.505,65.174 C136.543,65.174 139.005,67.637 139.005,70.674 C139.005,73.712 136.543,76.174 133.505,76.174 z" fill-opacity="0" stroke="#000000" stroke-width="3"/>
      </g>
      <g>
        <path d="M134.494,422.953 C131.457,422.953 128.994,420.491 128.994,417.453 C128.994,414.416 131.457,411.953 134.494,411.953 C137.532,411.953 139.994,414.416 139.994,417.453 C139.994,420.491 137.532,422.953 134.494,422.953 z" fill="#FFFFFF"/>
        <path d="M134.494,422.953 C131.457,422.953 128.994,420.491 128.994,417.453 C128.994,414.416 131.457,411.953 134.494,411.953 C137.532,411.953 139.994,414.416 139.994,417.453 C139.994,420.491 137.532,422.953 134.494,422.953 z" fill-opacity="0" stroke="#000000" stroke-width="3"/>
      </g>
      <text transform="matrix(1, 0, 0, 1, 282.566, 294.674)">
        <tspan x="-16.95" y="9" font-family="Avenir-Medium" font-size="30" fill="#656565">aR</tspan>
      </text>
      <text transform="matrix(1, 0, 0, 1, 299.916, 201.953)">
        <tspan x="-38.37" y="9" font-family="Avenir-Medium" font-size="30" fill="#656565">(1-a)R</tspan>
      </text>
      <text transform="matrix(1, 0, 0, 1, 332.076, 38.047)">
        <tspan x="-9.165" y="9" font-family="Avenir-Medium" font-size="30" fill="#656565">R</tspan>
      </text>
      <text transform="matrix(1, 0, 0, 1, 494.076, 38.047)">
        <tspan x="-9.165" y="9" font-family="Avenir-Medium" font-size="30" fill="#656565">R</tspan>
      </text>
      <text transform="matrix(1, 0, 0, 1, 594.576, 324.047)">
        <tspan x="-49.425" y="9" font-family="Avenir-Medium" font-size="30" fill="#656565">Output</tspan>
      </text>
      <text transform="matrix(1, 0, 0, 1, 88.489, 250.039)">
        <tspan x="-35.565" y="9" font-family="Avenir-Medium" font-size="30" fill="#656565">Input</tspan>
      </text>
      <text transform="matrix(1, 0, 0, 1, 448.202, 195.88)">
        <tspan x="-5.688" y="11" font-family="Avenir-Medium" font-size="36" fill="#656565">-</tspan>
      </text>
      <text transform="matrix(1, 0, 0, 1, 448.202, 243.917)">
        <tspan x="-8.325" y="4.036" font-family="Avenir-Medium" font-size="25" fill="#656565">+</tspan>
      </text>
      <g>
        <path d="M362.975,59.547 L362.975,81.802 L292.237,81.802 L292.237,59.547 L362.975,59.547 z" fill="#FFFFFF"/>
        <path d="M362.975,59.547 L362.975,81.802 L292.237,81.802 L292.237,59.547 L362.975,59.547 z" fill-opacity="0" stroke="#000000" stroke-width="2"/>
      </g>
      <g>
        <path d="M454.261,81.802 L454.261,59.547 L524.999,59.547 L524.999,81.802 L454.261,81.802 z" fill="#FFFFFF"/>
        <path d="M454.261,81.802 L454.261,59.547 L524.999,59.547 L524.999,81.802 L454.261,81.802 z" fill-opacity="0" stroke="#000000" stroke-width="2"/>
      </g>
      <g>
        <path d="M238.752,210.084 L261.007,210.084 L261.007,280.823 L238.752,280.823 L238.752,210.084 z" fill="#FFFFFF"/>
        <path d="M238.752,210.084 L261.007,210.084 L261.007,280.823 L238.752,280.823 L238.752,210.084 z" fill-opacity="0" stroke="#000000" stroke-width="2"/>
      </g>
      <g>
        <path d="M133.505,406.41 L133.505,93.402" fill-opacity="0" stroke="#A3A3A3" stroke-width="4"/>
        <path d="M133.505,93.402 L138.305,96.602 L133.505,83.802 L128.705,96.602 z" fill="#A3A3A3" fill-opacity="1" stroke="#A3A3A3" stroke-width="4" stroke-opacity="1"/>
      </g>
      <g>
        <path d="M652.516,407.368 L652.516,241.139" fill-opacity="0" stroke="#A3A3A3" stroke-width="4"/>
        <path d="M652.516,241.139 L657.315,244.339 L652.516,231.539 L647.716,244.339 z" fill="#A3A3A3" fill-opacity="1" stroke="#A3A3A3" stroke-width="4" stroke-opacity="1"/>
      </g>
    </g>
  </g>
</svg>
